<svg width="55" height="55" viewBox="0 0 55 55" fill="none" xmlns="http://www.w3.org/2000/svg">
<path fill-rule="evenodd" clip-rule="evenodd" d="M27.5 4.58325C14.8436 4.58325 4.58337 14.8433 4.58337 27.4999C4.58337 40.1563 14.8436 50.4166 27.5 50.4166C40.1567 50.4166 50.4167 40.1564 50.4167 27.4999C50.4167 14.8433 40.1567 4.58325 27.5 4.58325ZM27.5 45.8332C17.3911 45.8332 9.16674 37.6089 9.16674 27.4999C9.16674 17.3908 17.391 9.16662 27.5 9.16662C37.6091 9.16662 45.8334 17.3908 45.8334 27.4999C45.8334 37.6089 37.6091 45.8332 27.5 45.8332ZM30.3697 18.3333C30.3697 19.9949 29.1599 21.1979 27.5233 21.1979C25.8206 21.1979 24.6404 19.9947 24.6404 18.3015C24.6404 16.674 25.8525 15.4687 27.5233 15.4687C29.1599 15.4687 30.3697 16.674 30.3697 18.3333ZM25.2134 25.2082H29.7967V38.9582H25.2134V25.2082Z" fill="black"/>
</svg>
