<svg width="52" height="51" viewBox="0 0 52 51" fill="none" xmlns="http://www.w3.org/2000/svg">
<path fill-rule="evenodd" clip-rule="evenodd" d="M25.2694 2.16583C25.2694 1.59142 25.5331 1.04053 26.0026 0.634357C26.472 0.228185 27.1087 0 27.7726 0C28.4365 0 29.0733 0.228185 29.5427 0.634357C30.0122 1.04053 30.2759 1.59142 30.2759 2.16583V5.22398C30.2759 5.7984 30.0122 6.34929 29.5427 6.75546C29.0733 7.16163 28.4365 7.38982 27.7726 7.38982C27.1087 7.38982 26.472 7.16163 26.0026 6.75546C25.5331 6.34929 25.2694 5.7984 25.2694 5.22398V2.16583ZM5.18065 19.4925C5.18065 20.0669 5.44439 20.6178 5.91384 21.024C6.3833 21.4301 7.02001 21.6583 7.68392 21.6583H11.2273C11.8912 21.6583 12.5279 21.4301 12.9974 21.024C13.4668 20.6178 13.7306 20.0669 13.7306 19.4925C13.7306 18.9181 13.4668 18.3672 12.9974 17.961C12.5279 17.5548 11.8912 17.3266 11.2273 17.3266H7.68392C7.02001 17.3266 6.3833 17.5548 5.91384 17.961C5.44439 18.3672 5.18065 18.9181 5.18065 19.4925ZM51.9417 19.4925C51.9417 20.0669 51.6779 20.6178 51.2085 21.024C50.739 21.4301 50.1023 21.6583 49.4384 21.6583H45.8938C45.2299 21.6583 44.5932 21.4301 44.1237 21.024C43.6543 20.6178 43.3905 20.0669 43.3905 19.4925C43.3905 18.9181 43.6543 18.3672 44.1237 17.961C44.5932 17.5548 45.2299 17.3266 45.8938 17.3266H49.4384C50.1023 17.3266 50.739 17.5548 51.2085 17.961C51.6779 18.3672 51.9417 18.9181 51.9417 19.4925ZM11.7943 5.71238C11.561 5.9127 11.3758 6.15099 11.2494 6.41352C11.1231 6.67605 11.058 6.95762 11.058 7.242C11.058 7.52638 11.1231 7.80795 11.2494 8.07048C11.3758 8.333 11.561 8.5713 11.7943 8.77162L14.3001 10.9331C15.2788 11.7778 16.8659 11.7778 17.8459 10.9331C18.0786 10.7326 18.2632 10.4943 18.3892 10.2319C18.5151 9.96951 18.58 9.68817 18.58 9.40404C18.58 9.11991 18.5151 8.83857 18.3892 8.57617C18.2632 8.31378 18.0786 8.07548 17.8459 7.87496L15.3389 5.71238C14.8681 5.30688 14.2309 5.07922 13.5666 5.07922C12.9023 5.07922 12.2651 5.30688 11.7943 5.71238ZM44.4544 8.2973C44.6871 8.09678 44.8717 7.85848 44.9976 7.59609C45.1236 7.33369 45.1885 7.05235 45.1885 6.76822C45.1885 6.48409 45.1236 6.20276 44.9976 5.94036C44.8717 5.67796 44.6871 5.43967 44.4544 5.23915C43.9836 4.83331 43.3461 4.60545 42.6815 4.60545C42.0169 4.60545 41.3793 4.83331 40.9085 5.23915L38.4015 7.40064C38.1688 7.60117 37.9842 7.83946 37.8583 8.10186C37.7323 8.36425 37.6675 8.64559 37.6675 8.92972C37.6675 9.21385 37.7323 9.49519 37.8583 9.75759C37.9842 10.02 38.1688 10.2583 38.4015 10.4588C39.3815 11.3035 40.9674 11.3035 41.9474 10.4588L44.4544 8.2973ZM25.7475 19.5889C16.9423 26.6462 8.73779 33.8725 5.34336 36.9003C4.9879 37.2166 4.94034 37.6042 5.08553 37.8912C5.38592 38.4825 5.72011 39.0846 6.04303 39.5665C6.36595 40.0484 6.80277 40.5985 7.24585 41.1194C7.46363 41.3739 7.88543 41.5352 8.38734 41.4269C13.1185 40.4068 24.4571 37.8955 35.932 34.8515C35.131 33.1989 33.7004 30.5761 31.2459 26.9083C28.8766 23.3682 27.0066 21.0281 25.7475 19.5878M32.2285 9.36939C31.8174 8.98007 31.2564 8.73386 30.6505 8.67692C30.0446 8.61998 29.4356 8.75623 28.9375 9.06011C28.4395 9.36399 28.0867 9.81464 27.9452 10.3275C27.8038 10.8404 27.8835 11.3803 28.1694 11.846C17.2339 20.2094 5.88782 30.1917 1.74867 33.8833C0.0802457 35.3734 -0.520538 37.6216 0.502046 39.6347C0.837484 40.2931 1.25553 41.0577 1.70987 41.7377C2.16547 42.4156 2.7237 43.1109 3.21809 43.6902C4.72506 45.4586 7.27338 46.1311 9.59767 45.6297C10.4726 45.4413 11.5752 45.202 12.8644 44.9161L13.0534 45.5279C14.255 49.3961 18.8598 51.6821 23.3293 50.6501C27.8014 49.6159 30.4674 45.6449 29.2646 41.7746L29.0643 41.1259C34.196 39.8556 39.7032 38.4197 44.9475 36.9112C45.2713 37.3581 45.7725 37.6874 46.3569 37.8373C46.9413 37.9872 47.5689 37.9475 48.1219 37.7255C48.6749 37.5036 49.1153 37.1147 49.3605 36.6318C49.6056 36.1489 49.6387 35.6052 49.4534 35.1027L48.2068 35.4449L49.4522 35.1016V35.1005L49.4497 35.0973L49.4484 35.0908L49.4409 35.0735L49.4209 35.0215L49.3533 34.8526C49.2949 34.7103 49.2056 34.5053 49.0854 34.2375C48.8426 33.7025 48.4596 32.9098 47.8876 31.8356C46.7424 29.687 44.8324 26.4058 41.7409 21.7861C38.6493 17.1664 36.3088 14.1006 34.7242 12.1709C34.1429 11.4579 33.5385 10.7591 32.9118 10.0754C32.7104 9.85742 32.5038 9.64295 32.2923 9.43219L32.251 9.39213L32.236 9.37805L32.231 9.37263L32.2285 9.36939ZM24.243 42.2987C21.905 42.8575 19.7034 43.3708 17.7095 43.8256L17.8885 44.4039C18.1238 45.1527 18.6927 45.7902 19.4706 46.1765C20.2484 46.5629 21.1716 46.6665 22.0377 46.4647C22.4655 46.3667 22.8669 46.1967 23.2187 45.9643C23.5706 45.732 23.866 45.4419 24.0882 45.1107C24.3103 44.7795 24.4548 44.4137 24.5134 44.0341C24.572 43.6545 24.5435 43.2687 24.4295 42.8986L24.243 42.2987Z" fill="black"/>
</svg>
