<svg width="72" height="72" viewBox="0 0 72 72" fill="none" xmlns="http://www.w3.org/2000/svg">
<path d="M36 72C31.02 72 26.34 71.0544 21.96 69.1632C17.58 67.272 13.77 64.7076 10.53 61.47C7.29 58.2324 4.7256 54.4224 2.8368 50.04C0.948004 45.6576 0.00240456 40.9776 4.55696e-06 36C-0.00239544 31.0224 0.943204 26.3424 2.8368 21.96C4.7304 17.5776 7.2948 13.7676 10.53 10.53C13.7652 7.2924 17.5752 4.728 21.96 2.8368C26.3448 0.9456 31.0248 0 36 0C40.9752 0 45.6552 0.9456 50.04 2.8368C54.4248 4.728 58.2348 7.2924 61.47 10.53C64.7052 13.7676 67.2708 17.5776 69.1668 21.96C71.0628 26.3424 72.0072 31.0224 72 36C71.9928 40.9776 71.0472 45.6576 69.1632 50.04C67.2792 54.4224 64.7148 58.2324 61.47 61.47C58.2252 64.7076 54.4152 67.2732 50.04 69.1668C45.6648 71.0604 40.9848 72.0048 36 72ZM36 64.8C44.04 64.8 50.85 62.01 56.43 56.43C62.01 50.85 64.8 44.04 64.8 36C64.8 27.96 62.01 21.15 56.43 15.57C50.85 9.99 44.04 7.2 36 7.2C27.96 7.2 21.15 9.99 15.57 15.57C9.99 21.15 7.2 27.96 7.2 36C7.2 44.04 9.99 50.85 15.57 56.43C21.15 62.01 27.96 64.8 36 64.8ZM36 57.6C30 57.6 24.9 55.5 20.7 51.3C16.5 47.1 14.4 42 14.4 36C14.4 30 16.5 24.9 20.7 20.7C24.9 16.5 30 14.4 36 14.4C42 14.4 47.1 16.5 51.3 20.7C55.5 24.9 57.6 30 57.6 36C57.6 42 55.5 47.1 51.3 51.3C47.1 55.5 42 57.6 36 57.6ZM36 50.4C39.96 50.4 43.35 48.99 46.17 46.17C48.99 43.35 50.4 39.96 50.4 36C50.4 32.04 48.99 28.65 46.17 25.83C43.35 23.01 39.96 21.6 36 21.6C32.04 21.6 28.65 23.01 25.83 25.83C23.01 28.65 21.6 32.04 21.6 36C21.6 39.96 23.01 43.35 25.83 46.17C28.65 48.99 32.04 50.4 36 50.4ZM36 43.2C34.02 43.2 32.3256 42.4956 30.9168 41.0868C29.508 39.678 28.8024 37.9824 28.8 36C28.7976 34.0176 29.5032 32.3232 30.9168 30.9168C32.3304 29.5104 34.0248 28.8048 36 28.8C37.9752 28.7952 39.6708 29.5008 41.0868 30.9168C42.5028 32.3328 43.2072 34.0272 43.2 36C43.1928 37.9728 42.4884 39.6684 41.0868 41.0868C39.6852 42.5052 37.9896 43.2096 36 43.2Z" fill="#1B2CE3"/>
</svg>
