<svg width="78" height="74" viewBox="0 0 78 74" fill="none" xmlns="http://www.w3.org/2000/svg">
<path d="M17.724 47.1978C16.3224 44.206 15.5989 40.9703 15.6 37.6987C15.6 25.1023 26.076 14.8994 39 14.8994C51.924 14.8994 62.4 25.1057 62.4 37.6987C62.4011 40.9703 61.6776 44.206 60.276 47.1978M39 3V6.39983V3ZM75 36.9983H71.4H75ZM6.6 36.9983H3H6.6ZM64.452 12.9581L61.9068 15.3618L64.452 12.9581ZM16.0932 15.3652L13.548 12.9615L16.0932 15.3652ZM48.0612 61.8409C51.6972 60.7292 53.1588 57.5843 53.5692 54.4225C53.6916 53.4773 52.8672 52.692 51.8592 52.692H26.3172C26.071 52.6882 25.8269 52.7339 25.6008 52.826C25.3748 52.9181 25.172 53.0545 25.0059 53.2261C24.8398 53.3977 24.7142 53.6007 24.6374 53.8216C24.5606 54.0425 24.5344 54.2763 24.5604 54.5075C24.9636 57.6625 25.9788 59.9676 29.8308 61.8375M48.0612 61.8409L29.8308 61.8375L48.0612 61.8409ZM48.0612 61.8409C47.6256 68.4536 45.6024 71.0714 39.0252 70.9967C31.9908 71.119 30.3708 67.879 29.8308 61.8375" fill="white"/>
<path d="M17.724 47.1978C16.3224 44.206 15.5989 40.9703 15.6 37.6987C15.6 25.1023 26.076 14.8994 39 14.8994C51.924 14.8994 62.4 25.1057 62.4 37.6987C62.4011 40.9703 61.6776 44.206 60.276 47.1978M39 3V6.39983M75 36.9983H71.4M6.6 36.9983H3M64.452 12.9581L61.9068 15.3618M16.0932 15.3652L13.548 12.9615M48.0612 61.8409C51.6972 60.7292 53.1588 57.5843 53.5692 54.4225C53.6916 53.4773 52.8672 52.692 51.8592 52.692H26.3172C26.071 52.6882 25.8269 52.7339 25.6008 52.826C25.3748 52.9181 25.172 53.0545 25.0059 53.2261C24.8398 53.3977 24.7142 53.6007 24.6374 53.8216C24.5606 54.0425 24.5344 54.2763 24.5604 54.5075C24.9636 57.6625 25.9788 59.9676 29.8308 61.8375M48.0612 61.8409L29.8308 61.8375M48.0612 61.8409C47.6256 68.4536 45.6024 71.0715 39.0252 70.9967C31.9908 71.119 30.3708 67.879 29.8308 61.8375" stroke="#0D1DD0" stroke-width="6" stroke-linecap="round" stroke-linejoin="round"/>
</svg>
